<svg xmlns="http://www.w3.org/2000/svg" width="20" height="20" viewBox="0 0 20 20">
  <path id="ic_camera_24px" d="M9.4,10.5l4.77-8.26A10.306,10.306,0,0,0,12,2,9.984,9.984,0,0,0,5.68,4.25L9.34,10.6l.06-.1ZM21.54,9a10.025,10.025,0,0,0-6-6.34L11.88,9Zm.26,1H14.31l.29.5,4.76,8.25A9.911,9.911,0,0,0,22,12a10.124,10.124,0,0,0-.2-2ZM8.54,12,4.64,5.25A9.958,9.958,0,0,0,2,12a10.124,10.124,0,0,0,.2,2H9.69ZM2.46,15a10.025,10.025,0,0,0,6,6.34L12.12,15Zm11.27,0-3.9,6.76A10.306,10.306,0,0,0,12,22a9.984,9.984,0,0,0,6.32-2.25L14.66,13.4,13.73,15Z" transform="translate(-2 -2)"/>
</svg>
